<svg xmlns="http://www.w3.org/2000/svg" width="93" height="58" fill="none" viewBox="0 0 93 58"><path fill="#fff" d="M14.7705 57.976C12.2745 57.976 9.9385 57.592 7.7625 56.824C5.6505 56.056 3.9545 54.84 2.6745 53.176C1.3945 51.448 0.7545 49.208 0.7545 46.456C0.7545 43.896 1.3945 41.464 2.6745 39.16C4.0185 36.792 5.7465 34.68 7.8585 32.824C10.0345 30.968 12.4345 29.496 15.0585 28.408C17.7465 27.32 20.4345 26.776 23.1225 26.776C23.6345 26.776 23.9225 26.904 23.9865 27.16C24.0505 27.352 23.9225 27.448 23.6025 27.448C21.4265 27.448 19.1545 27.992 16.7865 29.08C14.4825 30.104 12.3385 31.544 10.3545 33.4C8.4345 35.192 6.8665 37.208 5.6505 39.448C4.4345 41.688 3.8265 43.96 3.8265 46.264C3.8265 49.848 4.7545 52.44 6.6105 54.04C8.5305 55.576 10.8025 56.344 13.4265 56.344C15.4745 56.344 17.5865 55.928 19.7625 55.096C22.0025 54.328 24.0825 53.24 26.0025 51.832C30.2905 48.44 34.1305 44.536 37.5225 40.12C40.9145 35.704 44.3385 31.256 47.7945 26.776C50.0985 23.896 52.2745 21.112 54.3225 18.424C56.4345 15.672 58.8665 13.016 61.6185 10.456C62.8345 9.304 64.1145 8.216 65.4585 7.192C66.8665 6.168 68.2425 5.336 69.5865 4.696C65.4265 4.44 61.0425 4.056 56.4345 3.544C51.8265 2.968 47.4425 2.68 43.2825 2.68C39.1225 2.68 35.2505 3.192 31.6665 4.216C28.1465 5.176 25.4585 6.968 23.6025 9.592C22.5145 11.128 21.9705 12.632 21.9705 14.104C21.9705 15.128 22.1945 15.96 22.6425 16.6C22.8345 16.856 23.0905 17.144 23.4105 17.464C23.7305 17.72 24.0185 17.848 24.2745 17.848C24.0185 18.104 23.6985 18.232 23.3145 18.232C22.8665 18.232 22.4185 18.136 21.9705 17.944C21.5865 17.688 21.2665 17.432 21.0105 17.176C20.3705 16.472 19.8905 15.672 19.5705 14.776C19.2505 13.816 19.0905 12.888 19.0905 11.992C19.0905 10.2 19.5065 8.696 20.3385 7.48C23.7945 2.744 29.6505 0.375999 37.9065 0.375999C39.7625 0.375999 41.7785 0.504 43.9545 0.76C46.1945 0.951998 48.5625 1.24 51.0585 1.62399C52.2745 1.816 53.9065 2.04 55.9545 2.296C58.0025 2.488 60.2425 2.68 62.6745 2.872C65.1705 3 67.6025 3.064 69.9705 3.064C72.7865 3.064 75.2825 2.904 77.4585 2.584C79.6985 2.264 81.1705 1.72 81.8745 0.951998H82.1625C82.6745 0.951998 82.9305 1.208 82.9305 1.72C82.7385 2.616 82.2585 3.32 81.4905 3.832C80.7865 4.28 80.0185 4.536 79.1865 4.6C78.0985 4.728 76.9465 4.824 75.7305 4.888C74.5785 4.888 73.3625 4.856 72.0825 4.792C69.4585 6.968 66.8665 9.592 64.3065 12.664C61.7465 15.672 59.1225 19.032 56.4345 22.744L52.2105 28.504H66.7065C68.6905 26.072 70.7385 23.704 72.8505 21.4C74.9625 19.096 77.0425 16.92 79.0905 14.872C80.4985 13.528 82.0345 12.216 83.6985 10.936C85.3625 9.656 86.9945 8.6 88.5945 7.768C90.2585 6.872 91.6985 6.424 92.9145 6.424C92.0825 7.064 90.7705 8.248 88.9785 9.976C87.2505 11.64 85.6505 13.272 84.1785 14.872C82.1945 16.984 79.9545 19.512 77.4585 22.456C75.0265 25.4 72.5945 28.408 70.1625 31.48C67.7945 34.552 65.6505 37.432 63.7305 40.12C61.8105 42.808 60.4025 45.016 59.5065 46.744C58.4825 48.472 57.9705 50.072 57.9705 51.544C57.9705 52.888 58.5145 53.56 59.6025 53.56C60.2425 53.56 61.1705 53.24 62.3865 52.6C64.2425 51.512 65.8105 50.328 67.0905 49.048C68.3705 47.704 69.8105 46.136 71.4105 44.344C71.6665 44.344 71.7945 44.536 71.7945 44.92C71.7945 45.496 71.6665 45.944 71.4105 46.264C68.4665 49.72 66.0025 52.088 64.0185 53.368C62.0985 54.584 59.9545 55.192 57.5865 55.192C55.9865 55.192 54.8665 54.84 54.2265 54.136C53.5865 53.368 53.2665 52.408 53.2665 51.256C53.2665 50.232 53.4905 49.08 53.9385 47.8C54.3865 46.52 54.9625 45.272 55.6665 44.056C56.9465 41.816 58.4185 39.48 60.0825 37.048C61.8105 34.616 63.6345 32.216 65.5545 29.848H51.2505C49.0105 32.984 46.6105 36.216 44.0505 39.544C41.4905 42.808 38.7385 45.848 35.7945 48.664C32.8505 51.416 29.6185 53.656 26.0985 55.384C22.6425 57.112 18.8665 57.976 14.7705 57.976Z"/></svg>